<svg height="512pt" viewBox="-58 0 511 512" width="512pt" xmlns="http://www.w3.org/2000/svg"><path d="m287.140625 76.164062c1.535156 0 3.085937-.472656 4.421875-1.445312 9.648438-7.058594 19.105469-15.546875 16.058594-25.019531-1.765625-5.492188-6.792969-7.527344-9.796875-8.746094-.039063-.015625-.082031-.03125-.121094-.046875 1.125-1.457031 3.363281-3.835938 7.785156-7.3125 3.257813-2.558594 3.820313-7.277344 1.261719-10.535156-2.5625-3.257813-7.277344-3.820313-10.535156-1.261719-8.128906 6.390625-17.0625 14.917969-13.976563 24.230469 1.765625 5.332031 6.523438 7.4375 9.585938 8.683594-1.371094 1.597656-4.023438 4.167968-9.117188 7.894531-3.34375 2.445312-4.074219 7.140625-1.628906 10.484375 1.46875 2.007812 3.75 3.074218 6.0625 3.074218zm0 0"/><path d="m352.503906 103.9375c4.421875 3.472656 6.660156 5.855469 7.785156 7.308594-.042968.019531-.082031.035156-.121093.050781-3.003907 1.21875-8.035157 3.253906-9.800781 8.746094-3.042969 9.472656 6.410156 17.960937 16.0625 25.019531 1.332031.976562 2.882812 1.445312 4.421874 1.445312 2.3125 0 4.59375-1.066406 6.0625-3.074218 2.445313-3.347656 1.714844-8.039063-1.628906-10.488282-5.09375-3.722656-7.746094-6.292968-9.117187-7.890624 3.0625-1.246094 7.820312-3.355469 9.585937-8.683594 3.089844-9.316406-5.847656-17.84375-13.976562-24.230469-3.257813-2.5625-7.972656-1.996094-10.535156 1.261719-2.558594 3.257812-1.996094 7.976562 1.261718 10.535156zm0 0"/><path d="m322.046875 100.878906c3.460937 0 6.28125-2.820312 6.28125-6.285156 0-3.46875-2.820313-6.285156-6.28125-6.285156-3.464844 0-6.285156 2.816406-6.285156 6.285156 0 3.464844 2.820312 6.285156 6.285156 6.285156zm0 0"/><path d="m275.828125 142.171875c3.464844 0 6.28125-2.816406 6.28125-6.285156 0-3.464844-2.816406-6.285157-6.28125-6.285157s-6.28125 2.820313-6.28125 6.285157c0 3.46875 2.816406 6.285156 6.28125 6.285156zm0 0"/><path d="m331.363281 12.570312c3.464844 0 6.285157-2.816406 6.285157-6.285156 0-3.464844-2.820313-6.285156-6.285157-6.285156-3.460937 0-6.28125 2.820312-6.28125 6.285156 0 3.46875 2.820313 6.285156 6.28125 6.285156zm0 0"/><path d="m34.480469 76.164062c1.535156 0 3.085937-.472656 4.421875-1.445312 9.648437-7.058594 19.105468-15.546875 16.058594-25.019531-1.765626-5.492188-6.796876-7.527344-9.800782-8.746094-.039062-.015625-.078125-.03125-.121094-.046875 1.125-1.457031 3.363282-3.835938 7.785157-7.3125 3.257812-2.558594 3.824219-7.277344 1.261719-10.535156-2.5625-3.257813-7.277344-3.820313-10.535157-1.261719-8.125 6.390625-17.0625 14.917969-13.976562 24.226563 1.769531 5.335937 6.523437 7.441406 9.585937 8.6875-1.371094 1.597656-4.023437 4.167968-9.117187 7.894531-3.34375 2.445312-4.070313 7.140625-1.625 10.484375 1.46875 2.007812 3.746093 3.074218 6.0625 3.074218zm0 0"/><path d="m99.84375 103.9375c4.417969 3.472656 6.660156 5.855469 7.785156 7.308594-.042968.019531-.082031.035156-.121094.050781-3.003906 1.21875-8.035156 3.253906-9.800781 8.746094-3.042969 9.472656 6.410157 17.960937 16.058594 25.019531 1.335937.976562 2.886719 1.445312 4.425781 1.445312 2.308594 0 4.589844-1.066406 6.0625-3.074218 2.445313-3.347656 1.714844-8.039063-1.628906-10.488282-5.09375-3.722656-7.746094-6.292968-9.117188-7.890624 3.0625-1.246094 7.816407-3.355469 9.585938-8.683594 3.085938-9.316406-5.847656-17.84375-13.976562-24.230469-3.257813-2.5625-7.976563-1.996094-10.535157 1.261719-2.5625 3.257812-1.996093 7.976562 1.261719 10.535156zm0 0"/><path d="m69.382812 100.878906c3.464844 0 6.285157-2.820312 6.285157-6.285156 0-3.46875-2.820313-6.285156-6.285157-6.285156-3.460937 0-6.28125 2.816406-6.28125 6.285156 0 3.464844 2.820313 6.285156 6.28125 6.285156zm0 0"/><path d="m158.105469 56.890625c3.464843 0 6.28125-2.820313 6.28125-6.285156 0-3.46875-2.816407-6.285157-6.28125-6.285157-3.464844 0-6.28125 2.816407-6.28125 6.285157 0 3.464843 2.816406 6.285156 6.28125 6.285156zm0 0"/><path d="m23.167969 142.171875c3.464843 0 6.28125-2.816406 6.28125-6.285156 0-3.464844-2.816407-6.285157-6.28125-6.285157-3.464844 0-6.285157 2.820313-6.285157 6.285157 0 3.46875 2.820313 6.285156 6.285157 6.285156zm0 0"/><path d="m78.703125 12.570312c3.464844 0 6.28125-2.816406 6.28125-6.285156 0-3.464844-2.816406-6.285156-6.28125-6.285156s-6.28125 2.820312-6.28125 6.285156c0 3.46875 2.816406 6.285156 6.28125 6.285156zm0 0"/><path d="m232.601562 18.359375c3.464844 0 6.28125-2.820313 6.28125-6.285156 0-3.46875-2.816406-6.285157-6.28125-6.285157-3.464843 0-6.28125 2.816407-6.28125 6.285157 0 3.464843 2.816407 6.285156 6.28125 6.285156zm0 0"/><path d="m78.015625 496.992188h-30.597656c-4.144531 0-7.503907 3.359374-7.503907 7.503906 0 4.144531 3.359376 7.503906 7.503907 7.503906h30.597656c4.140625 0 7.5-3.359375 7.5-7.503906 0-4.144532-3.359375-7.503906-7.5-7.503906zm0 0"/><path d="m133.246094 496.992188h-30.59375c-4.144532 0-7.503906 3.359374-7.503906 7.503906 0 4.144531 3.359374 7.503906 7.503906 7.503906h30.59375c4.144531 0 7.503906-3.359375 7.503906-7.503906 0-4.144532-3.359375-7.503906-7.503906-7.503906zm0 0"/><path d="m348.625 496.992188h-30.59375c-4.144531 0-7.503906 3.359374-7.503906 7.503906 0 4.144531 3.359375 7.503906 7.503906 7.503906h30.59375c4.144531 0 7.503906-3.359375 7.503906-7.503906 0-4.144532-3.359375-7.503906-7.503906-7.503906zm0 0"/><path d="m293.390625 496.992188h-30.59375c-4.144531 0-7.503906 3.359374-7.503906 7.503906 0 4.144531 3.359375 7.503906 7.503906 7.503906h30.59375c4.144531 0 7.503906-3.359375 7.503906-7.503906 0-4.144532-3.359375-7.503906-7.503906-7.503906zm0 0"/><path d="m372.671875 256.609375-41.347656-21.296875c-.5-.351562-1.015625-.683594-1.542969-1 2.855469-2.515625 5.117188-5.769531 6.425781-9.621094l5.671875-16.714844c1.933594-5.703124 1.53125-11.820312-1.132812-17.222656-2.667969-5.398437-7.277344-9.4375-12.984375-11.371094l-6.640625-2.246093c-11.761719-3.980469-24.578125 2.347656-28.570313 14.105469l-5.671875 16.714843c-.535156 1.582031-.875 3.195313-1.050781 4.816407l-55.683594-27.136719-12.859375-19.609375c-3.5625-5.429688-10.140625-7.824219-16.363281-5.96875-1.027344.304687-1.992187.722656-2.898437 1.222656-.90625-.5-1.875-.917969-2.902344-1.222656-6.222656-1.855469-12.796875.539062-16.363282 5.96875l-12.859374 19.609375-55.683594 27.136719c-.175782-1.621094-.515625-3.234376-1.050782-4.816407l-5.671874-16.714843c-3.992188-11.761719-16.808594-18.089844-28.574219-14.105469l-6.640625 2.246093c-5.703125 1.933594-10.3125 5.972657-12.980469 11.371094-2.664063 5.402344-3.066406 11.519532-1.132813 17.222656l5.671876 16.714844c1.308593 3.851563 3.574218 7.109375 6.429687 9.625-.519531.308594-1.023437.636719-1.515625.976563l-41.378906 21.3125c-14.109375 7.265625-22.871094 21.628906-22.871094 37.488281v46c0 4.144531 3.359375 7.503906 7.503906 7.503906 8.671875 0 16.839844-3.378906 23.003906-9.519531 6.144532-6.136719 9.523438-14.300781 9.523438-22.992187v-16.964844c0-1.738282.972656-3.300782 2.542969-4.078125l10.164062-5.046875-.273437 38.003906v.050781.054688c0 .015625-.003906.035156-.003906.050781.003906.136719.015624.269531.023437.402344.007813.082031.007813.164062.015625.242187.019531.1875.050781.367188.082031.550781.007813.058594.015625.117188.027344.175782.015625.078125.03125.152344.050781.230468v.007813l15.078125 64.363281c.105469.441406.25.875.429688 1.292969.371093.84375.433593 1.796875.179687 2.679687l-21.875 76.300782c-.859375 2.992187-.25 6.261718 1.625 8.75 1.875 2.484375 4.851563 3.972656 7.96875 3.972656h13.832032c3.410156 0 6.546874-1.714844 8.390624-4.582031l28.125-43.710938-8.136718 36.160157c-.652344 2.96875.066406 6.03125 1.96875 8.402343 1.90625 2.367188 4.738281 3.726563 7.777344 3.726563h13.710937c4.0625 0 7.6875-2.425782 9.234375-6.179688l31.152344-75.71875c4.953125-8.707031 3.664062-19.617187-3.183594-26.945312l-38.824219-53.285156.339844-14.199219c.101563-4.140625-3.175781-7.578125-7.320313-7.679688-.0625 0-.121093 0-.183593 0-4.058594 0-7.398438 3.242188-7.496094 7.320313l-.226563 9.507812-37.703124.507813.304687-42.273438c.007813-.089843.003906-.179687.003906-.269531l.144531-20.175781c.027344-3.367188 1.609376-6.539063 4.195313-8.632813l11.917969-6.140625 89.738281-43.734375c1.214844-.59375 2.246094-1.503906 2.988281-2.632812l13.203125-20.128906v15.664062c.039063 8.105469-4.640625 15.640625-11.925781 19.195312-.042969.019532-.082031.039063-.125.0625l-67.035156 34.273438c-2.449219 1.253906-4.019532 3.75-4.082032 6.5l-.625 26.089844c-.101562 4.140625 3.175782 7.582031 7.320313 7.679687 4.144531.066407 7.582031-3.179687 7.679687-7.320312l.519532-21.621094 62.992187-32.210937c5.105469-2.5 9.4375-6.160157 12.789063-10.546876 3.347656 4.386719 7.679687 8.046876 12.785156 10.546876l62.992188 32.210937 1.628906 68.007813-38.824219 53.285156c-6.847656 7.328125-8.132813 18.238281-3.179687 26.945312l31.152343 75.722656c1.546875 3.75 5.171875 6.175782 9.234375 6.175782h13.710938c3.039062 0 5.871094-1.359375 7.773437-3.726563 1.90625-2.371093 2.625-5.433593 1.964844-8.433593l-8.128906-36.132813 28.125 43.71875c1.84375 2.863281 4.980469 4.578125 8.390625 4.578125h13.832031c3.117187 0 6.09375-1.484375 7.96875-3.972656 1.875-2.488282 2.480469-5.757813 1.625-8.753906l-21.875-76.292969c-.253906-.886719-.191406-1.839844.179687-2.683594.179688-.417969.324219-.851563.429688-1.292969l15.078125-64.363281s0-.003906 0-.007813c.015625-.070312.03125-.144531.046875-.21875.015625-.070312.023438-.144531.035156-.21875.027344-.167968.054688-.335937.074219-.507812.007813-.097656.011719-.191406.019531-.289062.007813-.121094.019532-.242188.019532-.367188 0-.015625 0-.03125 0-.050781 0-.015625 0-.035157 0-.054688s0-.035156 0-.050781l-.273438-38.003906 10.167969 5.046875c1.5625.773437 2.535156 2.335937 2.535156 4.074219v16.964843c0 8.691407 3.382813 16.855469 9.53125 23 6.15625 6.132813 14.324219 9.511719 22.996094 9.511719 4.144531 0 7.503906-3.355469 7.503906-7.5v-46.003906c-.003906-15.851563-8.765625-30.214844-22.875-37.480469zm-303.917969-59.210937c.890625-1.804688 2.433594-3.15625 4.339844-3.800782l6.636719-2.246094c.796875-.273437 1.609375-.398437 2.410156-.398437 3.140625 0 6.078125 1.980469 7.140625 5.109375l5.671875 16.714844c.644531 1.90625.511719 3.953125-.378906 5.757812-.890625 1.804688-2.433594 3.152344-4.339844 3.800782l-6.636719 2.246093c-3.933594 1.332031-8.21875-.78125-9.550781-4.714843l-5.671875-16.714844c-.644531-1.90625-.511719-3.949219.378906-5.753906zm79.566406 189.96875c2.542969 2.582031 3.011719 6.539062 1.140626 9.632812-.199219.328125-.375.671875-.523438 1.03125l-30.066406 73.082031h-4.066406l13.304687-59.148437c1.390625-4.078125.726563-8.535156-1.828125-12.0625-.046875-.0625-.09375-.128906-.144531-.191406l-.988281-1.273438c-.0625-.269531-.128907-.539062-.203126-.808594-.125-.429687-.285156-.84375-.480468-1.242187l-16.722656-34.082031c-1.828126-3.722657-6.324219-5.257813-10.042969-3.429688-3.71875 1.824219-5.253907 6.320312-3.429688 10.039062l16.355469 33.335938v.003906c.21875 1.292969-.128906 2.628906-.96875 3.660156-.179688.21875-.347656.445313-.5.683594l-41.503906 64.519532h-4.417969l20.035156-69.878907c1.144531-3.988281.941407-8.257812-.558593-12.113281l-12.8125-54.691406 39.371093-.53125 38.335938 52.617187c.214843.300781.457031.582031.714843.847657zm-94.960937-115.183594-16.953125 8.417968c-6.710938 3.324219-10.878906 10.039063-10.878906 17.519532v16.964844c0 4.679687-1.820313 9.074218-5.117188 12.371093-1.449218 1.445313-3.109375 2.605469-4.902344 3.457031v-36.820312c0-10.210938 5.644532-19.464844 14.734376-24.144531l23.21875-11.960938zm247.730469-59.402344 5.671875-16.71875c1.066406-3.132812 4.003906-5.109375 7.140625-5.109375.800781 0 1.613281.128906 2.410156.394531l6.640625 2.25c1.90625.644532 3.445313 1.996094 4.335937 3.800782.890626 1.804687 1.027344 3.847656.378907 5.753906l-5.667969 16.714844c-1.335938 3.933593-5.621094 6.042968-9.550781 4.714843l-6.640625-2.246093c-1.90625-.648438-3.445313-1.996094-4.335938-3.800782-.894531-1.804687-1.027344-3.847656-.382812-5.753906zm-83.511719-2.398438c-.042969-.023437-.082031-.042968-.125-.0625-7.285156-3.554687-11.964844-11.089843-11.925781-19.195312 0-.011719 0-.023438 0-.035156v-15.628906l13.203125 20.128906c.742187 1.128906 1.773437 2.039062 2.988281 2.632812l89.71875 43.726563 11.957031 6.160156c2.566407 2.085937 4.148438 5.253906 4.171875 8.617187l.148438 20.152344c0 .101563-.003906.203125 0 .300782l.308594 42.269531-37.703126-.507813-1.625-67.785156c-.066406-2.75-1.632812-5.246094-4.082031-6.5zm115.230469 260.734376h-4.417969l-41.507813-64.519532c-.152343-.238281-.316406-.464844-.496093-.683594-.84375-1.03125-1.191407-2.371093-.972657-3.664062l16.355469-33.335938c1.828125-3.71875.292969-8.214843-3.429687-10.039062-3.71875-1.824219-8.214844-.289062-10.039063 3.429688l-16.722656 34.082031c-.195313.398437-.355469.8125-.480469 1.242187-.074218.269532-.140625.539063-.203125.808594l-.988281 1.273438c-.050781.0625-.097656.128906-.144531.191406-2.554688 3.527344-3.21875 7.984375-1.828125 12.0625l13.304687 59.148437h-4.066406l-30.070313-73.082031c-.144531-.359375-.320312-.703125-.519531-1.03125-1.871093-3.09375-1.402343-7.050781 1.136719-9.632812.261719-.265626.5-.546876.71875-.847657l38.335938-52.617187 39.371093.53125-12.8125 54.691406c-1.503906 3.855469-1.703125 8.128906-.5625 12.113281zm47.730468-140.203126c-1.796874-.847656-3.449218-2.007812-4.898437-3.453124-3.304687-3.300782-5.125-7.695313-5.125-12.375v-16.964844c0-7.480469-4.167969-14.195313-10.875-17.519532l-16.957031-8.417968-.101563-14.195313 23.21875 11.960938c9.089844 4.679687 14.734375 13.933593 14.734375 24.144531v36.820312zm0 0"/><path d="m198.023438 144.144531c4.140624 0 7.5-3.359375 7.5-7.503906v-36.988281c0-4.144532-3.359376-7.503906-7.5-7.503906-4.144532 0-7.503907 3.359374-7.503907 7.503906v36.988281c0 4.144531 3.359375 7.503906 7.503907 7.503906zm0 0"/><path d="m222.574219 151.679688c1.917969 0 3.835937-.730469 5.300781-2.191407l20.058594-20.039062c2.929687-2.929688 2.933594-7.679688.003906-10.609375-2.925781-2.929688-7.679688-2.933594-10.609375-.007813l-20.058594 20.039063c-2.929687 2.925781-2.933593 7.679687-.003906 10.609375 1.464844 1.464843 3.386719 2.199219 5.308594 2.199219zm0 0"/><path d="m168.167969 149.484375c1.464843 1.464844 3.382812 2.195313 5.304687 2.195313 1.917969 0 3.839844-.734376 5.304688-2.199219 2.929687-2.933594 2.929687-7.683594-.003906-10.609375l-20.058594-20.035156c-2.929688-2.929688-7.683594-2.929688-10.609375.003906-2.929688 2.933594-2.925781 7.683594.003906 10.609375zm0 0"/></svg>