<svg id="Icons" height="512" viewBox="0 0 74 74" width="512" xmlns="http://www.w3.org/2000/svg"><path d="m13.183 58.744a1 1 0 0 1 -1-1v-45.409a6.965 6.965 0 0 1 6.958-6.958h45.465a1 1 0 0 1 0 2h-45.465a4.964 4.964 0 0 0 -4.958 4.958v45.409a1 1 0 0 1 -1 1z"/><path d="m71 19.134h-12.787a1 1 0 0 1 -1-1v-5.363a7.394 7.394 0 1 1 14.787 0v5.363a1 1 0 0 1 -1 1zm-11.787-2h10.787v-4.363a5.394 5.394 0 1 0 -10.787 0z"/><path d="m49.729 68.622h-38.052a9.688 9.688 0 0 1 -9.677-9.677v-1.2a1 1 0 0 1 1-1h38.244a1 1 0 0 1 1 1v1.394a7.484 7.484 0 0 0 14.969 0v-41a1 1 0 0 1 2 0v41a9.5 9.5 0 0 1 -9.484 9.483zm-45.729-9.878v.2a7.685 7.685 0 0 0 7.677 7.677h32.232a9.475 9.475 0 0 1 -3.665-7.484v-.394z"/><path d="m35.757 35a1 1 0 0 1 -.595-.2c-4.12-3.048-7.934-6.8-7.934-13.575v-3.034a1 1 0 0 1 .3-.718.967.967 0 0 1 .728-.281 7.889 7.889 0 0 0 6.725-2.95.968.968 0 0 1 .811-.362 1 1 0 0 1 .779.424c1.265 1.8 3.413 2.719 6.76 2.889a1 1 0 0 1 .949 1v3.038a14.057 14.057 0 0 1 -2.135 7.733 22.148 22.148 0 0 1 -5.8 5.841 1 1 0 0 1 -.588.195zm-6.528-15.818v2.047c0 4.629 1.842 7.907 6.528 11.518a19.224 19.224 0 0 0 4.7-4.852 12.119 12.119 0 0 0 1.826-6.666v-2.109a10.179 10.179 0 0 1 -6.563-2.72 9.689 9.689 0 0 1 -6.491 2.782z"/><path d="m34.355 27.159a1 1 0 0 1 -.707-.293l-1.518-1.518a1 1 0 0 1 1.414-1.414l.811.811 3.613-3.613a1 1 0 0 1 1.414 1.414l-4.32 4.32a1 1 0 0 1 -.707.293z"/><path d="m50.757 42h-30a1 1 0 0 1 0-2h30a1 1 0 0 1 0 2z"/><path d="m50.757 49h-30a1 1 0 0 1 0-2h30a1 1 0 0 1 0 2z"/></svg>