<svg id="Capa_1" enable-background="new 0 0 512 512" height="512" viewBox="0 0 512 512" width="512" xmlns="http://www.w3.org/2000/svg"><g><path d="m497 241h-106v-226c0-8.284-6.716-15-15-15h-240c-8.284 0-15 6.716-15 15v226h-106c-8.284 0-15 6.716-15 15v241c0 8.284 6.716 15 15 15h482c8.284 0 15-6.716 15-15v-241c0-8.284-6.716-15-15-15zm-346-211h210v211h-210zm-121 241h211v211h-211zm452 211h-211v-211h211z"/><path d="m291.729 181 10.854 21.708c8.819 17.637 35.714 4.347 26.833-13.417l-60-120c-5.553-11.107-21.373-10.919-26.833 0l-60 120c-8.87 17.741 17.952 31.18 26.833 13.417l10.855-21.708zm-56.458-30 20.729-41.459 20.729 41.459z"/><path d="m151 301h-60c-8.284 0-15 6.716-15 15v120c0 8.284 6.716 15 15 15h60c24.813 0 45-20.187 45-45 0-11.517-4.354-22.032-11.495-30 7.142-7.968 11.495-18.483 11.495-30 0-24.813-20.187-45-45-45zm-45 30h45c8.271 0 15 6.729 15 15s-6.729 15-15 15h-45zm45 90h-45v-30h45c8.271 0 15 6.729 15 15s-6.729 15-15 15z"/><path d="m301 376c0 41.355 33.645 75 75 75 20.033 0 38.867-7.801 53.033-21.967 14.023-14.023-7.169-35.256-21.213-21.213-8.5 8.499-19.8 13.18-31.82 13.18-24.813 0-45-20.187-45-45s20.187-45 45-45c12.02 0 23.32 4.681 31.82 13.18 14.023 14.024 35.256-7.171 21.213-21.213-14.166-14.166-33-21.967-53.033-21.967-41.355 0-75 33.645-75 75z"/></g></svg>