<svg id="Слой_1" data-name="Слой 1" xmlns="http://www.w3.org/2000/svg" xmlns:xlink="http://www.w3.org/1999/xlink" viewBox="0 0 202.43 211.19"><defs><style>.cls-1{fill:url(#Безымянный_градиент_40);}.cls-2{fill:url(#Безымянный_градиент_14);}</style><linearGradient id="Безымянный_градиент_40" x1="109.6" y1="97.73" x2="191.53" y2="15.8" gradientUnits="userSpaceOnUse"><stop offset="0.07" stop-color="#f7931e"/><stop offset="0.24" stop-color="#f79b1e"/><stop offset="0.49" stop-color="#f9b01f"/><stop offset="0.79" stop-color="#fad220"/><stop offset="1" stop-color="#fcee21"/></linearGradient><linearGradient id="Безымянный_градиент_14" y1="107.93" x2="170.59" y2="107.93" gradientUnits="userSpaceOnUse"><stop offset="0" stop-color="#006fff"/><stop offset="0.02" stop-color="#0074fe"/><stop offset="0.22" stop-color="#00b1f1"/><stop offset="0.37" stop-color="#00d7e8"/><stop offset="0.45" stop-color="#00e5e5"/><stop offset="1" stop-color="#0bff96"/></linearGradient></defs><path class="cls-1" d="M126.52,114.65v-2.28l10.21-12.24.08-.1q2.85-3.36,2.85-5.22a3.26,3.26,0,0,0-1-2.46,3.56,3.56,0,0,0-2.6-1,3.6,3.6,0,0,0-2.49,1,4.63,4.63,0,0,0-1.4,2.56l-5.4-2.67a10.47,10.47,0,0,1,3.75-5,10.08,10.08,0,0,1,5.91-1.76,9.67,9.67,0,0,1,6.84,2.57A8.38,8.38,0,0,1,146,94.46a11,11,0,0,1-1.25,4.88,24.2,24.2,0,0,1-3.86,5.41l-3.7,4.11h10.13l-.95,5.79Zm26.17,0V91.54h-4.95l.92-5.14H159v28.25Zm-9.95-75.19a4.09,4.09,0,0,1-4.08-4.09V4.08a4.09,4.09,0,0,1,8.17,0V35.37A4.09,4.09,0,0,1,142.74,39.46ZM202.43,60a4.09,4.09,0,0,0-4.08-4.09H167.06a4.09,4.09,0,1,0,0,8.17h31.29A4.08,4.08,0,0,0,202.43,60ZM160.61,49.17l30.75-27.43a4.09,4.09,0,1,0-5.44-6.1L155.17,43.08a4.08,4.08,0,1,0,5.44,6.09Z"/><path class="cls-2" d="M116.23,156.4v54.79a28.44,28.44,0,0,1-28.44-28.45l-.22-9.83-.28-15.28V98.8A28.46,28.46,0,0,0,58.83,70.34h-1.5A28.54,28.54,0,0,0,28.78,98.88v1.69a28.28,28.28,0,0,0,28.28,28.28H77.94v28.78H56.16A56.16,56.16,0,0,1,0,101.47V98.1A56.7,56.7,0,0,1,56.7,41.4h3a56.54,56.54,0,0,1,56.54,56.54v26.34a28.54,28.54,0,0,0,32.45,1l21.91,19.6A56.71,56.71,0,0,1,116.23,156.4Zm4.29-83.89h33.63v-5a23.4,23.4,0,0,0-23.4-23.4H116.23v-11A28.45,28.45,0,0,0,87.79,4.67V38.32A66.37,66.37,0,0,1,120.52,72.51Z"/></svg>