<svg width="208" height="212" viewBox="0 0 208 212" fill="none" xmlns="http://www.w3.org/2000/svg">
<g clip-path="url(#clip0_411:9)">
<path d="M116.23 156.4V211.19C112.494 211.19 108.795 210.454 105.344 209.024C101.893 207.594 98.7574 205.498 96.1163 202.857C93.4753 200.215 91.3807 197.078 89.952 193.627C88.5233 190.175 87.7887 186.476 87.79 182.74L87.57 172.91L87.29 157.63V98.7999C87.29 91.2519 84.2915 84.013 78.9543 78.6757C73.617 73.3384 66.3781 70.3399 58.83 70.3399H57.33C53.5812 70.3386 49.8689 71.0758 46.4051 72.5095C42.9414 73.9432 39.794 76.0452 37.1427 78.6956C34.4915 81.3459 32.3883 84.4925 30.9534 87.9558C29.5185 91.4191 28.78 95.1312 28.78 98.8799V100.57C28.78 104.284 29.5115 107.961 30.9327 111.392C32.3539 114.823 34.437 117.941 37.063 120.567C42.3665 125.87 49.5597 128.85 57.06 128.85H77.94V157.63H56.16C41.2654 157.63 26.9809 151.713 16.4489 141.181C5.91684 130.649 0 116.364 0 101.47L0 98.0999C0 83.0621 5.97373 68.6403 16.607 58.007C27.2404 47.3737 41.6622 41.3999 56.7 41.3999H59.7C74.6953 41.3999 89.0765 47.3568 99.6798 57.9601C110.283 68.5634 116.24 82.9446 116.24 97.9399V124.28C120.907 127.724 126.512 129.665 132.309 129.843C138.106 130.022 143.82 128.43 148.69 125.28L170.6 144.88C163.288 151.305 154.445 155.739 144.923 157.757C135.401 159.774 125.519 159.307 116.23 156.4ZM120.52 72.5099H154.15V67.5099C154.15 64.437 153.545 61.3941 152.369 58.5551C151.193 55.7161 149.469 53.1365 147.296 50.9636C145.123 48.7907 142.544 47.0671 139.705 45.8911C136.866 44.7152 133.823 44.1099 130.75 44.1099H116.23V33.1099C116.227 25.568 113.23 18.3357 107.897 13.0027C102.564 7.66977 95.3319 4.67257 87.79 4.66992V38.3199C102.531 45.307 114.183 57.4782 120.52 72.5099V72.5099Z" fill="url(#paint0_linear_411:9)"/>
</g>
<g clip-path="url(#clip1_411:9)">
<path d="M131.52 114.65V112.37L141.73 100.13L141.81 100.03C143.71 97.79 144.66 96.05 144.66 94.81C144.675 94.3527 144.594 93.8974 144.422 93.4735C144.25 93.0497 143.99 92.6669 143.66 92.35C143.316 92.0171 142.909 91.7569 142.462 91.5851C142.015 91.4133 141.538 91.3333 141.06 91.35C140.132 91.35 139.24 91.7082 138.57 92.35C137.84 93.0301 137.349 93.928 137.17 94.91L131.77 92.24C132.482 90.2304 133.79 88.486 135.52 87.24C137.258 86.0503 139.325 85.4349 141.43 85.48C143.958 85.4091 146.414 86.3317 148.27 88.05C149.158 88.8601 149.862 89.8518 150.333 90.9578C150.804 92.0638 151.031 93.2582 151 94.46C150.966 96.1614 150.539 97.8319 149.75 99.34C148.718 101.312 147.419 103.133 145.89 104.75L142.19 108.86H152.32L151.37 114.65H131.52ZM157.69 114.65V91.54H152.74L153.66 86.4H164V114.65H157.69ZM147.74 39.46C146.657 39.4573 145.619 39.0252 144.854 38.2585C144.09 37.4918 143.66 36.453 143.66 35.37V4.07996C143.712 3.03151 144.165 2.04315 144.925 1.31945C145.686 0.595758 146.695 0.192139 147.745 0.192139C148.795 0.192139 149.804 0.595758 150.565 1.31945C151.325 2.04315 151.778 3.03151 151.83 4.07996V35.37C151.83 35.9071 151.724 36.4389 151.519 36.9351C151.313 37.4314 151.012 37.8822 150.632 38.262C150.252 38.6418 149.801 38.9431 149.305 39.1486C148.809 39.3542 148.277 39.46 147.74 39.46ZM207.43 60C207.43 58.917 207 57.8782 206.236 57.1114C205.471 56.3447 204.433 55.9126 203.35 55.91H172.06C171.507 55.8826 170.953 55.9679 170.434 56.1609C169.914 56.3538 169.44 56.6503 169.038 57.0323C168.637 57.4143 168.317 57.8739 168.099 58.3832C167.88 58.8925 167.768 59.4408 167.768 59.995C167.768 60.5491 167.88 61.0974 168.099 61.6067C168.317 62.116 168.637 62.5756 169.038 62.9576C169.44 63.3397 169.914 63.6361 170.434 63.8291C170.953 64.022 171.507 64.1074 172.06 64.08H203.35C204.432 64.08 205.47 63.6501 206.235 62.885C207 62.1198 207.43 61.082 207.43 60ZM165.61 49.17L196.36 21.74C196.786 21.3901 197.136 20.9579 197.391 20.4692C197.645 19.9805 197.798 19.4454 197.841 18.896C197.883 18.3467 197.815 17.7944 197.638 17.2723C197.462 16.7503 197.182 16.2692 196.816 15.858C196.449 15.4468 196.003 15.1139 195.504 14.8793C195.006 14.6448 194.465 14.5133 193.914 14.493C193.364 14.4726 192.815 14.5637 192.3 14.7608C191.786 14.9579 191.316 15.257 190.92 15.64L160.17 43.08C159.77 43.4372 159.445 43.8696 159.212 44.3526C158.979 44.8357 158.844 45.3598 158.814 45.8952C158.783 46.4305 158.859 46.9665 159.036 47.4726C159.213 47.9788 159.488 48.4451 159.845 48.845C160.202 49.2448 160.635 49.5704 161.118 49.8032C161.601 50.0359 162.125 50.1713 162.66 50.2014C163.196 50.2316 163.732 50.1561 164.238 49.9791C164.744 49.8021 165.21 49.5272 165.61 49.17V49.17Z" fill="url(#paint1_linear_411:9)"/>
<path d="M121.23 156.4V211.19C117.494 211.19 113.795 210.454 110.344 209.024C106.893 207.594 103.757 205.498 101.116 202.857C98.4753 200.215 96.3807 197.078 94.952 193.627C93.5233 190.175 92.7887 186.476 92.79 182.74L92.57 172.91L92.29 157.63V98.7999C92.29 91.2519 89.2915 84.013 83.9543 78.6757C78.617 73.3384 71.3781 70.3399 63.83 70.3399H62.33C58.5812 70.3386 54.8689 71.0758 51.4051 72.5095C47.9414 73.9432 44.794 76.0452 42.1427 78.6956C39.4915 81.3459 37.3883 84.4925 35.9534 87.9558C34.5185 91.4191 33.78 95.1312 33.78 98.8799V100.57C33.78 104.284 34.5115 107.961 35.9327 111.392C37.3539 114.823 39.437 117.941 42.063 120.567C47.3665 125.87 54.5597 128.85 62.06 128.85H82.94V157.63H61.16C46.2654 157.63 31.9809 151.713 21.4489 141.181C10.9168 130.649 5 116.364 5 101.47L5 98.0999C5 83.0621 10.9737 68.6403 21.607 58.007C32.2404 47.3737 46.6622 41.3999 61.7 41.3999H64.7C79.6953 41.3999 94.0765 47.3568 104.68 57.9601C115.283 68.5634 121.24 82.9446 121.24 97.9399V124.28C125.907 127.724 131.512 129.665 137.309 129.843C143.106 130.022 148.82 128.43 153.69 125.28L175.6 144.88C168.288 151.305 159.445 155.739 149.923 157.757C140.401 159.774 130.519 159.307 121.23 156.4ZM125.52 72.5099H159.15V67.5099C159.15 64.437 158.545 61.3941 157.369 58.5551C156.193 55.7161 154.469 53.1365 152.296 50.9636C150.123 48.7907 147.544 47.0671 144.705 45.8911C141.866 44.7152 138.823 44.1099 135.75 44.1099H121.23V33.1099C121.227 25.568 118.23 18.3357 112.897 13.0027C107.564 7.66977 100.332 4.67257 92.79 4.66992V38.3199C107.531 45.307 119.183 57.4782 125.52 72.5099V72.5099Z" fill="url(#paint2_linear_411:9)"/>
</g>
<defs>
<linearGradient id="paint0_linear_411:9" x1="0" y1="107.93" x2="170.59" y2="107.93" gradientUnits="userSpaceOnUse">
<stop stop-color="#EC038B"/>
<stop offset="0.5" stop-color="#FB6468"/>
<stop offset="1" stop-color="#FBB936"/>
</linearGradient>
<linearGradient id="paint1_linear_411:9" x1="114.6" y1="97.73" x2="196.53" y2="15.8" gradientUnits="userSpaceOnUse">
<stop offset="0.07" stop-color="#F7931E"/>
<stop offset="0.24" stop-color="#F79B1E"/>
<stop offset="0.49" stop-color="#F9B01F"/>
<stop offset="0.79" stop-color="#FAD220"/>
<stop offset="1" stop-color="#FCEE21"/>
</linearGradient>
<linearGradient id="paint2_linear_411:9" x1="5" y1="107.93" x2="175.59" y2="107.93" gradientUnits="userSpaceOnUse">
<stop stop-color="#006FFF"/>
<stop offset="0.02" stop-color="#0074FE"/>
<stop offset="0.22" stop-color="#00B1F1"/>
<stop offset="0.37" stop-color="#00D7E8"/>
<stop offset="0.45" stop-color="#00E5E5"/>
<stop offset="1" stop-color="#0BFF96"/>
</linearGradient>
<clipPath id="clip0_411:9">
<rect width="202.43" height="211.19" fill="white"/>
</clipPath>
<clipPath id="clip1_411:9">
<rect width="202.43" height="211.19" fill="white" transform="translate(5)"/>
</clipPath>
</defs>
</svg>
