<svg id="Capa_1" enable-background="new 0 0 512 512" height="512" viewBox="0 0 512 512" width="512" xmlns="http://www.w3.org/2000/svg"><path d="m500.167 206.346c0-23.49-12.821-45.009-32.788-56.426-1.311-47.561-35.466-88.573-82.21-98.219-12.603-14.751-31.074-23.381-50.7-23.381h-51.636v-13.32c0-8.284-6.716-15-15-15h-31.824c-16.045 0-29.129 12.924-29.386 28.909-19.603 5.271-38.465 13.088-56.075 23.241-5.512-5.343-12.755-8.281-20.449-8.281-7.851 0-15.23 3.057-20.782 8.608l-45.007 45.007c-11.347 11.349-11.456 29.746-.327 41.23-10.153 17.614-17.971 36.474-23.24 56.075-15.985.257-28.909 13.341-28.909 29.386v63.648c0 16.045 12.924 29.129 28.909 29.386 5.271 19.602 13.088 38.464 23.241 56.075-11.131 11.483-11.021 29.881.327 41.231l45.007 45.007c11.346 11.345 29.736 11.456 41.23.326 17.612 10.153 36.473 17.971 56.075 23.24.257 15.986 13.341 28.91 29.386 28.91h31.824c8.284 0 15-6.716 15-15v-13.32h51.636c19.625 0 38.097-8.629 50.699-23.38 46.745-9.644 80.9-50.657 82.211-98.219 19.967-11.417 32.788-32.936 32.788-56.427v-12.482c0-13.388-4.159-26.356-11.704-37.17 7.545-10.813 11.704-23.781 11.704-37.169zm-409.95 152.377c-9.041-15.596-15.976-32.319-20.612-49.705-3.37-12.642-14.737-21.528-27.771-21.797v-62.441c13.034-.27 24.401-9.156 27.771-21.796 4.637-17.385 11.571-34.109 20.612-49.708 6.543-11.289 4.772-25.595-4.266-35.007l44.151-44.151c9.41 9.039 23.716 10.81 35.008 4.266 15.596-9.041 32.319-15.975 49.707-20.612 12.64-3.371 21.526-14.739 21.796-27.772h16.22v85.27c-71.012 7.516-126.525 67.759-126.525 140.73s55.514 133.215 126.525 140.73v85.27h-16.22c-.27-13.032-9.156-24.4-21.797-27.772-17.388-4.637-34.111-11.571-49.707-20.612-11.288-6.539-25.588-4.773-35.007 4.268l-44.152-44.154c9.039-9.41 10.81-23.716 4.267-35.007zm162.616 7.79c-54.427-7.35-96.525-54.104-96.525-110.513s42.099-103.163 96.525-110.513zm217.334-147.682c0 9.901-4.234 19.38-11.616 26.006-3.17 2.845-4.98 6.904-4.98 11.163s1.811 8.317 4.98 11.163c7.382 6.626 11.616 16.105 11.616 26.007v12.483c0 12.67-6.936 24.264-17.719 30.396l-27.678-9.152c-7.871-2.606-16.351 1.668-18.95 9.532-2.602 7.865 1.667 16.35 9.532 18.95l21.982 7.269c-1.552 33.192-25.62 61.616-58.377 68.303-.397.081-.801.133-1.202.201-1.5-.058-2.995.105-4.439.488-5.077.242-10.29-.519-15.337-2.287-7.822-2.738-16.377 1.382-19.114 9.2-1.792 5.117-.632 10.541 2.565 14.452-2.273.439-4.601.673-6.961.673h-51.636v-395.358h51.636c5.762 0 11.338 1.366 16.346 3.862l7.165 20.463c5.054-1.769 10.273-2.53 15.354-2.286 1.253.331 2.543.514 3.842.514.203 0 .406-.014.609-.022.391.067.786.117 1.173.196 32.757 6.688 56.825 35.113 58.377 68.304l-21.982 7.268c-7.865 2.601-12.134 11.085-9.533 18.951 2.084 6.303 7.945 10.295 14.24 10.295 1.561 0 3.148-.246 4.711-.762l27.679-9.152c10.782 6.132 17.718 17.727 17.718 30.395v12.485z"/><path d="m373.85 370.183c-11.701 7.673-25.275 11.726-39.263 11.726-.056 0-.109-.001-.166 0-8.27 0-14.983 6.697-14.999 14.972-.016 8.284 6.688 15.013 14.972 15.028h.193c19.848 0 39.11-5.752 55.713-16.638 6.928-4.543 8.86-13.841 4.318-20.77-4.543-6.928-13.844-8.859-20.768-4.318z"/><path d="m334.585 134.691c13.989 0 27.566 4.055 39.264 11.725 2.536 1.663 5.39 2.458 8.212 2.458 4.886 0 9.678-2.384 12.558-6.776 4.542-6.928 2.609-16.227-4.318-20.769-16.599-10.885-35.865-16.638-55.715-16.638-8.284 0-15 6.716-15 15s6.715 15 14.999 15z"/><path d="m436.894 242.962c-20.157-8.2-42.36-8.2-62.52 0-7.674 3.122-11.363 11.873-8.242 19.546 2.369 5.823 7.979 9.353 13.899 9.353 1.883 0 3.796-.357 5.647-1.11 12.867-5.234 27.041-5.234 39.912 0 7.671 3.122 16.425-.568 19.546-8.242s-.569-16.425-8.242-19.547z"/><path d="m304.724 218.694h36.985c8.284 0 15-6.716 15-15s-6.716-15-15-15h-36.985c-8.284 0-15 6.716-15 15s6.715 15 15 15z"/><path d="m356.709 308.306c0-8.284-6.716-15-15-15h-36.985c-8.284 0-15 6.716-15 15s6.716 15 15 15h36.985c8.284 0 15-6.716 15-15z"/></svg>